<?xml version="1.0" encoding="UTF-8" standalone="no"?>
<svg width="998px" height="311px" viewBox="0 0 998 311" version="1.1" xmlns="http://www.w3.org/2000/svg" xmlns:xlink="http://www.w3.org/1999/xlink" xmlns:sketch="http://www.bohemiancoding.com/sketch/ns">
    <!-- Generator: Sketch 3.2.2 (9983) - http://www.bohemiancoding.com/sketch -->
    <title>jokkolabs_white</title>
    <desc>Created with Sketch.</desc>
    <defs></defs>
    <g id="Page-1" stroke="none" stroke-width="1" fill="none" fill-rule="evenodd" sketch:type="MSPage">
        <g id="jokkolabs_white" sketch:type="MSLayerGroup" fill="#FFFFFF">
            <path d="M27,101.9 C30.7,101.9 33.8,103.1 36.2,105.8 C38.7,108.3 39.9,111.3 39.9,114.6 C39.9,117.9 38.7,120.7 36.2,123.4 C33.7,125.9 30.9,127.3 27.2,127.3 C23.9,127.3 21.1,126.1 18.6,123.6 C15.9,121.1 14.7,118.3 14.7,114.6 C14.7,111.1 15.9,108 18.4,105.6 C20.9,103.1 23.7,101.9 27,101.9 L27,101.9 Z M0,265.1 L7.2,265.1 C14.6,265.1 18.3,261.2 18.3,253.4 L18.3,138.3 L36.3,138.3 L36.3,253.4 C36.3,258.7 36.1,262.4 35.7,264.7 C35.3,267 33.2,270.6 29.8,275.8 C26.3,280.9 20.8,283.4 13.2,283.4 L0,283.4 L0,265.1 L0,265.1 Z" id="Shape" sketch:type="MSShapeGroup"></path>
            <path d="M93.4,229.5 L122.7,229.5 C131.3,229.5 135.6,225 135.6,215.8 L135.6,169.7 C135.6,160.9 131.3,156.6 122.7,156.6 L93.4,156.6 C84.8,156.6 80.5,160.9 80.5,169.7 L80.5,215.2 C80.5,220.1 81.5,223.8 83.6,226.3 C85.6,228.5 88.9,229.5 93.4,229.5 M62.2,220.7 L62.2,164 C62.2,156 64.9,149.7 70,145.2 C75.1,140.7 82.3,138.2 91.3,138.2 L124.7,138.2 C133.5,138.2 140.5,140.5 145.8,145.2 C151.1,149.9 153.8,156.1 153.8,164 L153.8,220.9 C153.8,228.7 151.1,235 145.4,240.2 C139.9,245.3 132.9,248 124.5,248 L91.3,248 C82.9,248 75.7,245.5 70.4,240.4 C64.9,235.2 62.2,228.7 62.2,220.7" id="Shape" sketch:type="MSShapeGroup"></path>
            <path d="M203.1,200.8 C200.2,197.5 198.8,194.5 198.8,191.4 C198.8,189.1 199,187.3 199.6,185.7 C200.2,184.3 201.2,182.6 202.9,181 L245.7,138.2 L271.5,138.2 L219.1,191 L273.8,247.7 L248.8,247.7 L203.1,200.8 L203.1,200.8 Z M179.8,101.9 L198,101.9 L198,247.9 L179.8,247.9 L179.8,101.9 L179.8,101.9 Z" id="Shape" sketch:type="MSShapeGroup"></path>
            <path d="M312.7,200.8 C309.8,197.5 308.4,194.5 308.4,191.4 C308.4,189.1 308.6,187.3 309.2,185.7 C309.8,184.3 310.8,182.6 312.5,181 L355.3,138.2 L381.1,138.2 L328.7,191 L383.4,247.7 L358.4,247.7 L312.7,200.8 L312.7,200.8 Z M289.4,101.9 L307.6,101.9 L307.6,247.9 L289.4,247.9 L289.4,101.9 L289.4,101.9 Z" id="Shape" sketch:type="MSShapeGroup"></path>
            <path d="M425.3,229.5 L454.6,229.5 C463.2,229.5 467.5,225 467.5,215.8 L467.5,169.7 C467.5,160.9 463.2,156.6 454.6,156.6 L425.3,156.6 C416.7,156.6 412.4,160.9 412.4,169.7 L412.4,215.2 C412.4,220.1 413.4,223.8 415.5,226.3 C417.4,228.5 420.6,229.5 425.3,229.5 M394,220.7 L394,164 C394,156 396.7,149.7 401.8,145.2 C406.9,140.7 414.1,138.2 423.1,138.2 L456.5,138.2 C465.3,138.2 472.3,140.5 477.6,145.2 C482.9,149.9 485.6,156.1 485.6,164 L485.6,220.9 C485.6,228.7 482.7,235 477.2,240.2 C471.7,245.3 464.7,248 456.3,248 L422.9,248 C414.5,248 407.3,245.5 402,240.4 C396.9,235.2 394,228.7 394,220.7" id="Shape" sketch:type="MSShapeGroup"></path>
            <rect id="Rectangle-path" sketch:type="MSShapeGroup" x="511.8" y="101.9" width="18.2" height="146"></rect>
            <path d="M588.6,229.5 L613.4,229.5 C619.1,229.5 622.4,229.1 623.6,228.1 C624.8,227.1 625.9,225.6 626.9,223.8 C627.5,222.2 628.1,220.5 628.3,218.9 L628.3,201.3 C628.3,197.6 627.1,194.7 624.4,192.5 C621.7,190.2 618.3,189.2 613.5,189.2 L588.1,189.2 C583.8,189.2 580.3,190.2 577.7,192.3 C575,194.3 573.6,197.4 573.6,201.1 L573.6,218.7 C573.6,219.7 574,221.2 574.8,223 C575.6,224.8 576.6,226.3 577.9,227.5 C579.8,228.9 583.4,229.5 588.6,229.5 L588.6,229.5 Z M620.3,138.3 C625,138.3 628.7,138.7 631.4,139.5 C634.1,140.3 636.5,142 638.8,144.4 C641.1,146.8 643.1,149.7 644.5,153.2 C646.1,156.7 646.8,160.2 646.8,163.4 L646.8,219.7 C646.8,227.1 644.1,233.6 638.8,239.2 C633.5,244.8 627.3,247.6 620.2,247.6 L583.5,247.6 C576.1,247.6 569.6,244.7 564,238.8 C558.4,232.9 555.6,226.1 555.6,218.3 L555.6,205.2 C555.6,194.1 558.1,185.7 562.8,179.8 C567.5,174.1 574.5,171 583.3,171 L628.4,171 L628.4,163.8 C628.4,158.7 624.7,156 617.5,156 L555.4,156 L555.4,137.8 L620.3,137.8 L620.3,138.3 L620.3,138.3 Z" id="Shape" sketch:type="MSShapeGroup"></path>
            <path d="M702.4,229.5 L734.1,229.5 C736.8,229.5 739.2,228.5 741.1,226.2 C743.1,223.9 744,221.3 744,218 L744,168.8 C744,160.6 740.1,156.5 732.1,156.5 L702.2,156.5 C694.4,156.5 690.5,160.4 690.5,168.4 L690.5,216.3 C690.5,220 691.5,223.3 693.6,225.7 C695.7,228.2 698.8,229.5 702.4,229.5 L702.4,229.5 Z M732.7,138.3 C742.1,138.3 749.5,140.8 754.6,145.5 C759.7,150.2 762.4,157.2 762.4,166.2 L762.4,219.2 C762.4,227.6 759.7,234.4 754.4,239.9 C749.1,245.2 742.7,247.9 735.1,247.9 L699.3,247.9 C691.9,247.9 685.6,245 680.3,239.1 C675,233.2 672.3,225.8 672.3,217.2 L672.3,101.9 L690.5,101.9 L690.5,138.4 L732.7,138.4 L732.7,138.3 Z" id="Shape" sketch:type="MSShapeGroup"></path>
            <path d="M784.6,229.5 L836,229.5 L840.7,229.5 C845.6,229.5 848.3,225.8 848.3,218.6 L848.3,210 C848.3,203 844.8,199.8 837.7,199.8 L812.9,199.8 C804.7,199.8 798.8,198.6 795.3,195.9 C792,193.2 789.6,190.2 787.9,186.9 C786.3,183.6 785.4,180.3 785.4,177.1 L785.4,163.4 C785.4,159.3 785.8,155.8 786.8,153 C787.8,150.1 789.5,147.5 791.9,145 C796.2,140.5 802.1,138.2 809.7,138.2 L866.6,138.2 L866.6,156.4 L815,156.4 L811.3,156.4 C809,156.4 807.2,157.2 805.6,158.7 C804.2,160.1 803.3,162.2 803.3,164.6 L803.3,172.6 C803.3,175.1 804.3,177.1 806.2,179.2 C808.2,180.8 810.7,181.7 813.6,181.7 L840.8,181.7 C847.8,181.7 853.9,184.2 859,189.1 C864.1,194 866.8,200 866.8,207.1 L866.8,224.3 C866.8,230.4 864.3,236 859.6,240.9 C854.9,245.8 849.4,248.3 843.2,248.3 L785,248.3 L785,229.7 L784.6,229.7 L784.6,229.5 Z" id="Shape" sketch:type="MSShapeGroup"></path>
            <path d="M985.5,61.3 C985.5,58.6 987.8,56 990.8,57.8 C994.1,60.1 992.4,65 988.1,66.4 C983.8,67.8 975.6,66.4 971.3,69.7 C970.9,69.9 970.5,70.3 970.3,70.7 L959.4,59.4 C959.4,59.4 957.6,57.6 957.6,54.3 L957.6,16 L953.5,19.7 L953.5,32.8 C953.5,34.8 952.5,34.8 952.5,34.8 C951.1,34.8 951.1,33.2 951.1,33.2 L951.1,22.8 L947,26.1 L947,39.2 C948.8,39.4 953.8,38.6 953.6,40.8 L953.6,52.7 C953.6,54.5 952.8,54.1 952.8,54.1 C945.4,52.7 945.2,59 945.2,59 C945,64.7 951.8,66 954.2,63.1 C955.4,61.5 956.5,62.5 956.5,62.5 L969,75 C968.8,78.3 969.8,79.1 969.8,79.1 C970,79.3 970.4,79.1 970.2,77.9 C970.2,77.5 970.2,76.9 970.4,76.7 L983.9,90.2 C991.7,85.7 990.5,76.1 990.5,76.1 C983.5,74.7 977.2,78.1 977.2,78.1 L972.7,73.4 C977.2,70.9 987.9,71.1 987.9,71.1 C993.2,70.7 994.9,69.1 994.9,69.1 C1000.8,64 996.7,56.8 993.7,54.4 C991,52.4 993.3,49.3 993.3,49.3 C993.7,48.7 992.9,48.1 992.3,48.7 C991.5,49.7 990.5,49.5 988.6,53.2 C988,54.2 986.6,54.8 986.6,54.8 C981.5,56.4 983.5,62.8 983.5,62.8 C983.5,62.8 984.5,65.1 985.5,64.4 C985.5,64.4 985.9,64 985.5,63.2 C985.9,62.4 985.5,61.7 985.5,61.3 M950.5,60.7 C949.5,60.7 948.5,59.9 948.5,58.7 C948.5,57.7 949.3,56.7 950.5,56.7 C951.5,56.7 952.5,57.5 952.5,58.7 C952.5,59.9 951.5,60.7 950.5,60.7 M986.3,79.2 C986.9,82.9 983.8,84.1 983.8,84.1 C981.5,82.7 980.7,80.8 980.7,80.8 C982.6,77.7 986.3,79.2 986.3,79.2" id="Shape" sketch:type="MSShapeGroup"></path>
            <path d="M967.9,24.9 C966.1,23.1 965.6,19.6 969.1,18.6 C973,17.8 975.4,22.5 973.4,26.6 C971.4,30.7 964.8,35.4 963.8,40.9 L963.8,42.3 L948.2,42.1 C948.2,42.1 945.5,42.1 943.3,39.8 L916.3,12.8 L916.3,18.9 L925.3,27.5 C926.7,28.9 925.9,29.8 925.9,29.8 C924.9,30.8 923.9,29.6 923.9,29.6 L916.5,22.2 L916.5,27.9 L925.7,37.1 C927.1,35.9 929.6,31.6 931,33 L939.4,41.4 C940.8,42.6 939.8,43 939.8,43 C933.7,47.3 937.8,51.8 937.8,51.8 C941.7,56.1 947.4,52 947,48.3 C946.8,46.5 948,46.3 948,46.3 L965.6,46.3 C967.6,48.8 969.1,48.6 969.1,48.6 C969.3,48.6 969.5,48.2 968.5,47.4 C968.1,47 967.9,46.8 967.7,46.4 L986.7,46.4 C989.2,37.8 981.4,31.9 981.4,31.9 C975.5,35.8 973.4,42.8 973.4,42.8 L966.8,42.6 C968.2,37.7 976,30.3 976,30.3 C979.5,26.2 979.5,24 979.5,24 C980.1,16.2 972.1,14 968.2,14.4 C964.9,14.8 964.3,11.1 964.3,11.1 C964.1,10.3 963.1,10.7 963.3,11.3 C963.5,12.5 962.7,13.1 963.9,17 C964.1,18.2 963.5,19.5 963.5,19.5 C961,24.4 967,27.3 967,27.3 C967,27.3 969.5,28.1 969.7,26.9 C969.7,26.9 969.7,26.3 968.9,25.9 C968.9,25.5 968.1,25.3 967.9,24.9 M942.5,49.5 C941.7,50.3 940.5,50.3 939.6,49.5 C938.8,48.7 938.8,47.5 939.6,46.6 C940.4,45.8 941.6,45.8 942.5,46.6 C943.3,47.4 943.3,48.6 942.5,49.5 M981,37 C983.9,39.3 982.8,42.1 982.8,42.1 C980.1,42.7 978.3,41.9 978.3,41.9 C977.5,38.6 981,37 981,37" id="Shape" sketch:type="MSShapeGroup"></path>
            <path d="M973.8,99.8 C975.6,98 979.1,97.5 980.1,101 C980.9,104.9 976.2,107.3 972.1,105.3 C968,103.3 963.3,96.7 957.8,95.7 L956.4,95.7 L956.6,80.1 C956.6,80.1 956.6,77.4 958.9,75.2 L985.9,48.2 L979.8,48.2 L971.2,57.2 C969.8,58.6 968.9,57.8 968.9,57.8 C967.9,56.8 969.1,55.8 969.1,55.8 L976.5,48.4 L970.8,48.4 L961.6,57.6 C962.8,59 967.1,61.5 965.7,62.9 L957.3,71.3 C956.1,72.7 955.7,71.7 955.7,71.7 C951.4,65.6 946.9,69.7 946.9,69.7 C942.6,73.6 946.7,79.3 950.4,78.9 C952.2,78.7 952.4,79.9 952.4,79.9 L952.4,97.5 C949.9,99.5 949.9,101 949.9,101 C949.9,101.2 950.3,101.4 951.1,100.4 C951.5,100 951.7,99.8 952.1,99.6 L952.1,118.6 C960.7,121.1 966.6,113.3 966.6,113.3 C962.7,107.4 955.7,105.3 955.7,105.3 L955.9,98.7 C960.8,100.1 968.2,107.9 968.2,107.9 C972.3,111.4 974.5,111.4 974.5,111.4 C982.3,112 984.5,104 984.1,100.1 C983.7,96.8 987.4,96.2 987.4,96.2 C988.2,96 987.8,95 987.2,95.2 C986,95.4 985.4,94.4 981.5,95.8 C980.3,96 979,95.4 979,95.4 C974.1,92.9 971.2,98.9 971.2,98.9 C971.2,98.9 970.4,101.4 971.6,101.6 C971.6,101.6 972.2,101.6 972.6,100.8 C973.2,100.9 973.4,100 973.8,99.8 M949.2,74.4 C948.4,73.6 948.4,72.4 949.2,71.5 C950,70.7 951.2,70.7 952.1,71.5 C952.9,72.3 952.9,73.5 952.1,74.4 C951.3,75.3 950,75.3 949.2,74.4 M961.7,112.9 C959.4,115.8 956.6,114.7 956.6,114.7 C956,112 956.8,110.2 956.8,110.2 C960.1,109.5 961.7,112.9 961.7,112.9" id="Shape" sketch:type="MSShapeGroup"></path>
            <path d="M937.1,117.9 C939.8,117.9 942.4,120.2 940.6,123.2 C938.3,126.5 933.4,124.8 932,120.5 C930.6,116.2 932,108 928.7,103.7 C928.5,103.3 928.1,102.9 927.7,102.7 L939,91.8 C939,91.8 940.8,90 944.1,90 L982.2,90 L977.9,85.9 L965.6,85.9 C963.6,85.9 963.6,84.9 963.6,84.9 C963.6,83.5 965.2,83.5 965.2,83.5 L976.5,83.5 L972.4,79.4 L959.3,79.4 C959.1,81.2 959.9,86.2 957.7,86 L945.8,86 C944,86 944.4,85.2 944.4,85.2 C945.8,77.8 939.5,77.6 939.5,77.6 C933.8,77.4 932.5,84.2 935.4,86.6 C937,87.8 936,88.9 936,88.9 L923.5,101.4 C920.2,101.2 919.2,102.2 919.2,102.2 C919,102.4 919.2,102.8 920.4,102.6 C920.8,102.6 921.4,102.6 921.6,102.8 L908.1,116.3 C912.6,124.1 922.2,122.9 922.2,122.9 C923.6,115.9 920.2,109.6 920.2,109.6 L924.9,105.1 C927.4,109.6 927.2,120.3 927.2,120.3 C927.6,125.6 929.2,127.3 929.2,127.3 C934.3,133.2 941.5,129.1 943.9,126.1 C945.9,123.4 949,125.7 949,125.7 C949.6,126.1 950.2,125.3 949.6,124.9 C948.6,124.1 948.8,123.1 945.1,121.2 C944.1,120.6 943.5,119.2 943.5,119.2 C941.9,114.1 935.5,116.1 935.5,116.1 C935.5,116.1 933.2,117.1 933.9,118.1 C933.9,118.1 934.3,118.5 935.1,118.1 C936.1,118.3 936.7,117.9 937.1,117.9 M937.8,82.6 C937.8,81.6 938.6,80.6 939.8,80.6 C940.8,80.6 941.8,81.4 941.8,82.6 C941.8,83.8 941,84.6 939.8,84.6 C938.6,84.7 937.8,83.9 937.8,82.6 M919.3,118.7 C915.6,119.3 914.4,116.2 914.4,116.2 C915.8,113.9 917.7,113.1 917.7,113.1 C920.8,115 919.3,118.7 919.3,118.7" id="Shape" sketch:type="MSShapeGroup"></path>
            <path d="M897.8,105.6 C899.6,107.4 900.1,110.9 896.6,111.9 C892.7,112.7 890.3,108 892.3,103.9 C894.3,99.8 900.9,95.1 901.9,89.6 L901.9,88.2 L917.5,88.4 C917.5,88.4 920.2,88.4 922.4,90.7 L949.6,117.7 L949.6,112.2 L940.4,103 C939,101.6 939.8,100.7 939.8,100.7 C940.8,99.7 941.8,100.9 941.8,100.9 L949.4,108.3 L949.4,103.2 L940.4,94 C939,95.2 936.1,99.1 934.7,97.7 L926.3,89.3 C924.9,88.1 925.9,87.7 925.9,87.7 C932,83.4 927.9,78.9 927.9,78.9 C924,74.6 918.3,78.7 918.7,82.4 C918.9,84.2 917.7,84.4 917.7,84.4 L900.1,84.4 C898.1,81.9 896.6,81.9 896.6,81.9 C896.4,81.9 896.2,82.3 897.2,83.1 C897.6,83.5 897.8,83.7 898,84.1 L879,84.1 C876.5,92.7 884.3,98.6 884.3,98.6 C890.2,94.7 892.3,87.7 892.3,87.7 L898.9,87.9 C897.5,92.8 889.7,100.2 889.7,100.2 C886.2,104.3 886.2,106.5 886.2,106.5 C885.6,114.3 893.6,116.5 897.5,116.1 C900.8,115.7 901.4,119.4 901.4,119.4 C901.6,120.2 902.6,119.8 902.4,119.2 C902.2,118 903.2,117.4 901.8,113.5 C901.6,112.5 902.2,111 902.2,111 C904.7,106.1 898.7,103.2 898.7,103.2 C898.7,103.2 896.2,102.4 896,103.6 C896,103.6 896,104.2 896.8,104.6 C896.8,105 897.6,105.2 897.8,105.6 M923.2,81 C924,80.2 925.2,80.2 926.1,81 C926.9,81.8 926.9,83 926.1,83.9 C925.3,84.7 924.1,84.7 923.2,83.9 C922.4,83 922.4,81.8 923.2,81 M884.7,93.5 C881.8,91.2 882.9,88.4 882.9,88.4 C885.6,87.8 887.4,88.6 887.4,88.6 C888.2,91.8 884.7,93.5 884.7,93.5" id="Shape" sketch:type="MSShapeGroup"></path>
            <path d="M880.6,69.7 C880.6,72.4 878.3,75 875.3,73.2 C872,70.9 873.7,66 878,64.6 C882.3,63.2 890.5,64.6 894.8,61.3 C895.2,61.1 895.6,60.7 895.8,60.3 L906.7,71.6 C906.7,71.6 908.5,73.4 908.5,76.7 L908.5,114.8 L912.6,110.3 L912.6,98 C912.6,96 913.6,96 913.6,96 C915,96 915,97.6 915,97.6 L915,108 L919.1,103.9 L919.1,91.6 C917.3,91.4 912.3,92.2 912.5,90 L912.5,78.1 C912.5,76.3 913.3,76.7 913.3,76.7 C920.7,78.1 920.9,71.8 920.9,71.8 C921.1,66.1 914.1,64.8 911.9,67.7 C910.7,69.3 909.6,68.3 909.6,68.3 L897.1,55.8 C897.3,52.5 896.3,51.5 896.3,51.5 C896.1,51.3 895.7,51.5 895.9,52.7 C895.9,53.1 895.9,53.7 895.7,53.9 L882.2,40.4 C874.4,44.9 875.6,54.5 875.6,54.5 C882.6,55.9 888.9,52.5 888.9,52.5 L893.4,57.2 C888.9,59.7 878.2,59.5 878.2,59.5 C872.9,59.9 871.2,61.5 871.2,61.5 C865.3,66.6 869.4,73.8 872.4,76.2 C875.1,78.2 872.8,81.3 872.8,81.3 C872.4,81.9 873.2,82.5 873.8,81.9 C874.6,80.9 875.6,81.1 877.5,77.4 C878.1,76.4 879.5,75.8 879.5,75.8 C884.6,74.2 882.6,67.8 882.6,67.8 C882.6,67.8 881.6,65.5 880.6,66.2 C880.6,66.2 880,66.6 880.6,67.4 C880.2,68.5 880.6,69.3 880.6,69.7 M915.8,70.3 C916.8,70.3 917.8,71.1 917.8,72.3 C917.8,73.3 917,74.3 915.8,74.3 C914.8,74.3 913.8,73.5 913.8,72.3 C913.8,71.1 914.6,70.3 915.8,70.3 M879.8,51.9 C879.2,48.2 882.3,47 882.3,47 C884.6,48.4 885.4,50.3 885.4,50.3 C883.5,53.1 879.8,51.9 879.8,51.9" id="Shape" sketch:type="MSShapeGroup"></path>
            <path d="M892.3,30.6 C890.5,32.4 887,32.9 886,29.4 C885.2,25.5 889.9,23.1 894,25.1 C898.1,27.1 902.8,33.7 908.3,34.7 L909.7,34.7 L909.5,50.3 C909.5,50.3 909.5,53 907.2,55.2 L880.2,82.4 L885.7,82.4 L894.9,73.2 C896.3,71.8 897.2,72.6 897.2,72.6 C898.2,73.6 897,74.6 897,74.6 L889.6,82.2 L894.7,82.2 L903.9,73.2 C902.7,71.8 898.8,68.9 900.2,67.5 L908.6,59.1 C909.8,57.7 910.2,58.7 910.2,58.7 C914.5,64.8 919,60.7 919,60.7 C923.3,56.8 919.2,51.1 915.5,51.5 C913.7,51.7 913.5,50.5 913.5,50.5 L913.5,32.9 C916,30.9 916,29.4 916,29.4 C916,29.2 915.6,29 914.8,30 C914.4,30.4 914.2,30.6 913.8,30.8 L913.8,11.8 C905.2,9.3 899.3,17.1 899.3,17.1 C903.2,23 910.2,25.1 910.2,25.1 L910,31.7 C905.1,30.3 897.7,22.5 897.7,22.5 C893.6,19 891.4,19 891.4,19 C883.6,18.4 881.4,26.4 881.8,30.3 C882.2,33.6 878.5,34.2 878.5,34.2 C877.7,34.4 878.1,35.4 878.7,35.2 C879.9,35 880.5,36 884.4,34.6 C885.6,34.4 886.9,35 886.9,35 C891.8,37.5 894.7,31.5 894.7,31.5 C894.7,31.5 895.5,29 894.3,28.8 C894.3,28.8 893.7,28.8 893.3,29.6 C892.9,29.6 892.7,30.4 892.3,30.6 M916.9,55.8 C917.7,56.6 917.7,57.8 916.9,58.7 C916.1,59.5 914.9,59.5 914,58.7 C913.2,57.9 913.2,56.7 914,55.8 C914.8,55 916,55 916.9,55.8 M904.4,17.5 C906.7,14.6 909.5,15.7 909.5,15.7 C910.1,18.4 909.3,20.2 909.3,20.2 C906,21 904.4,17.5 904.4,17.5" id="Shape" sketch:type="MSShapeGroup"></path>
            <path d="M928.7,12.8 C926,12.8 923.4,10.5 925.2,7.5 C927.5,4.2 932.4,5.9 933.8,10.2 C935.2,14.5 933.8,22.7 937.1,27 C937.3,27.4 937.7,27.8 938.1,28 L926.8,38.9 C926.8,38.9 925,40.7 921.7,40.7 L883.6,40.7 L888.1,44.8 L900.4,44.8 C902.4,44.8 902.4,45.8 902.4,45.8 C902.4,47.2 900.8,47.2 900.8,47.2 L890.4,47.2 L893.7,51.3 L906.8,51.3 C907,49.5 906.2,44.5 908.4,44.7 L920.3,44.7 C922.1,44.7 921.7,45.5 921.7,45.5 C920.3,52.9 926.6,53.1 926.6,53.1 C932.3,53.3 933.6,46.5 930.7,44.1 C929.1,42.9 930.1,41.8 930.1,41.8 L942.6,29.3 C945.9,29.5 946.9,28.5 946.9,28.5 C947.1,28.3 946.9,27.9 945.7,28.1 C945.3,28.1 944.7,28.1 944.5,27.9 L958,14.4 C953.5,6.6 943.9,7.8 943.9,7.8 C942.5,14.8 945.9,21.1 945.9,21.1 L941.2,25.6 C938.7,21.1 938.9,10.4 938.9,10.4 C938.5,5.1 936.9,3.4 936.9,3.4 C931.8,-2.5 924.6,1.6 922.2,4.6 C920.2,7.3 917.1,5 917.1,5 C916.5,4.6 915.9,5.4 916.5,5.8 C917.5,6.6 917.3,7.6 921,9.5 C922,10.1 922.6,11.5 922.6,11.5 C924.2,16.6 930.6,14.6 930.6,14.6 C930.6,14.6 932.9,13.6 932.2,12.6 C932.2,12.6 931.8,12.2 931,12.6 C930,12.4 929.2,12.8 928.7,12.8 M928.1,48 C928.1,49 927.3,50 926.1,50 C925.1,50 924.1,49.2 924.1,48 C924.1,47 924.9,46 926.1,46 C927.3,46 928.1,46.8 928.1,48 M946.6,12 C950.3,11.4 951.5,14.5 951.5,14.5 C950.1,16.8 948.2,17.6 948.2,17.6 C945.3,15.7 946.6,12 946.6,12" id="Shape" sketch:type="MSShapeGroup"></path>
            <path d="M708,301.4 C708,304.3 707.4,306.3 706,307.7 C704.6,309.3 702.5,310.2 699.9,310.2 L680.6,310.2 L680.6,271.7 L699.9,271.7 C705.4,271.7 708.1,274.6 708.1,280.3 L708.1,283.4 C708.1,285.2 707.9,286.7 707.5,287.7 C707.1,288.9 705.9,290 704.4,290.8 C704.8,291 705.4,291.4 706.2,291.8 C707.2,292.6 707.8,294.1 708,296.1 C708,296.9 708,298.5 708,301.4 M702.4,284.2 L702.4,281.3 C702.4,278.6 700.8,277.2 697.7,277.2 L686,277.2 L686,288 L697.9,288 C701,288 702.4,286.8 702.4,284.2 M702.4,300.3 L702.4,297.6 C702.4,294.9 701,293.5 698.1,293.5 L686,293.5 L686,304.4 L698.1,304.4 C701,304.6 702.4,303.2 702.4,300.3" id="Shape" sketch:type="MSShapeGroup"></path>
            <path d="M738.1,303 C738.1,305.3 737.5,306.9 736.3,308.1 C735.1,309.3 733.4,310.1 731.2,310.1 L721.8,310.1 C719.5,310.1 717.7,309.5 716.5,308.5 C715.1,307.3 714.2,305.6 714.2,303.4 L714.2,298.3 C714.2,296 714.8,294.2 716.2,293 C717.4,291.8 719.3,291.2 721.5,291.2 L733.4,291.2 C733.4,289.6 733.2,288.3 732.8,287.7 C732.2,286.9 731.2,286.5 729.7,286.5 L714.3,286.5 L714.3,281.6 L730.3,281.6 C735.6,281.6 738.3,284.1 738.3,289 L738.3,303 L738.1,303 L738.1,303 Z M733.2,302 L733.2,296.5 C733.2,295.9 732.8,295.5 732,295.5 L722.4,295.5 C719.9,295.5 718.9,296.7 718.9,299 L718.9,301.9 C718.9,302.9 719.3,303.7 719.9,304.4 C720.5,305 721.5,305.2 722.4,305.2 L729.6,305.2 C732.1,305.3 733.2,304 733.2,302 L733.2,302 Z" id="Shape" sketch:type="MSShapeGroup"></path>
            <path d="M779.2,310.2 L774.3,310.2 L774.3,290.1 C774.3,288.1 773.7,286.8 772.3,286.4 C771.7,286.2 770.3,286.2 767.6,286.2 C766.6,286.2 765.6,286.6 764.9,287.4 C764.5,288 764.3,288.8 764.3,290.3 L764.3,310.4 L759.4,310.4 L759.4,290.3 C759.4,288.3 758.8,287 757.6,286.6 C757,286.4 755.6,286.2 753.1,286.2 C750.4,286.2 749.2,287.4 749.2,290.1 L749.2,310.2 L744.3,310.2 L744.3,288.9 C744.3,283.8 746.8,281.3 751.5,281.3 L756,281.3 C757.4,281.3 758.7,281.5 759.5,281.9 C760.3,282.3 761.1,283.1 762,284.4 C763.4,282.4 765.3,281.3 767.9,281.3 L772.4,281.3 C774.7,281.3 776.3,281.9 777.5,283.3 C778.7,284.7 779.3,286.6 779.3,288.8 L779.2,310.2 L779.2,310.2 Z" id="Shape" sketch:type="MSShapeGroup"></path>
            <path d="M809.3,303 C809.3,305.3 808.7,306.9 807.5,308.1 C806.3,309.3 804.6,310.1 802.4,310.1 L793,310.1 C790.7,310.1 788.9,309.5 787.7,308.5 C786.3,307.3 785.4,305.6 785.4,303.4 L785.4,298.3 C785.4,296 786,294.2 787.4,293 C788.6,291.8 790.5,291.2 792.7,291.2 L804.6,291.2 C804.6,289.6 804.4,288.3 804,287.7 C803.4,286.9 802.4,286.5 800.9,286.5 L785.5,286.5 L785.5,281.6 L801.5,281.6 C806.8,281.6 809.5,284.1 809.5,289 L809.5,303 L809.3,303 L809.3,303 Z M804.4,302 L804.4,296.5 C804.4,295.9 804,295.5 803.2,295.5 L793.6,295.5 C791.1,295.5 790.1,296.7 790.1,299 L790.1,301.9 C790.1,302.9 790.5,303.7 791.1,304.4 C791.7,305 792.7,305.2 793.6,305.2 L800.8,305.2 C803.4,305.3 804.4,304 804.4,302 L804.4,302 Z" id="Shape" sketch:type="MSShapeGroup"></path>
            <path d="M820.4,310.2 L815.5,310.2 L815.5,271 L820.4,271 L820.4,310.2 L820.4,310.2 Z M838.2,310.2 L832.1,310.2 L821.5,297.5 C820.9,296.9 820.7,296.1 820.7,295.5 C820.7,294.9 821.1,294.1 821.7,293.2 L831.7,281.3 L837.6,281.3 L825.9,295.4 L838.2,310.2 L838.2,310.2 Z" id="Shape" sketch:type="MSShapeGroup"></path>
            <path d="M865.7,303 C865.7,305.5 864.9,307.5 863.2,308.7 C862,309.7 860.3,310.1 858.1,310.1 L849.5,310.1 C846.8,310.1 845,309.5 843.6,308.3 C842.4,307.1 841.6,305.2 841.6,303 L841.6,288.7 C841.6,286.2 842.4,284.2 844.1,283 C845.3,282 847.2,281.6 849.4,281.6 L858,281.6 C860.5,281.6 862.1,282 863.3,283 C864.9,284.4 865.8,286.3 865.8,288.9 L865.7,303 L865.7,303 Z M860.7,301.6 L860.7,289.9 C860.7,288.7 860.3,287.6 859.5,286.8 C858.9,286.2 857.9,286 856.6,286 L850.7,286 C849.3,286 848.2,286.2 847.6,286.8 C846.8,287.4 846.4,288.4 846.4,289.9 L846.4,301.6 C846.4,302.8 846.8,303.9 847.6,304.5 C848.2,304.9 849,305.3 850.3,305.3 L856.9,305.3 C857.9,305.3 858.9,305.1 859.4,304.5 C860.3,303.8 860.7,302.8 860.7,301.6 L860.7,301.6 Z" id="Shape" sketch:type="MSShapeGroup"></path>
        </g>
    </g>
</svg>