<?xml version="1.0" encoding="utf-8"?>
<!-- Generator: Adobe Illustrator 18.0.0, SVG Export Plug-In . SVG Version: 6.00 Build 0)  -->
<!DOCTYPE svg PUBLIC "-//W3C//DTD SVG 1.1//EN" "http://www.w3.org/Graphics/SVG/1.1/DTD/svg11.dtd">
<svg version="1.1" id="Layer_1" xmlns="http://www.w3.org/2000/svg" xmlns:xlink="http://www.w3.org/1999/xlink" x="0px" y="0px"
	 viewBox="0 0 500 164.8" enable-background="new 0 0 500 164.8" xml:space="preserve">
<path fill="#FFFFFF" d="M21,55c1.8,0,3.3,0.6,4.5,1.9c1.2,1.2,1.8,2.7,1.8,4.3c0,1.6-0.6,3-1.8,4.3c-1.2,1.2-2.6,1.9-4.4,1.9
	c-1.6,0-3-0.6-4.2-1.8c-1.3-1.2-1.9-2.6-1.9-4.4c0-1.7,0.6-3.2,1.8-4.4C18,55.6,19.4,55,21,55 M7.8,134.7h3.5c3.6,0,5.4-1.9,5.4-5.7
	V72.8h8.8V129c0,2.6-0.1,4.4-0.3,5.5c-0.2,1.1-1.2,2.9-2.9,5.4c-1.7,2.5-4.4,3.7-8.1,3.7H7.8V134.7z"/>
<path fill="#FFFFFF" d="M53.4,117.3h14.3c4.2,0,6.3-2.2,6.3-6.7V88.1c0-4.3-2.1-6.4-6.3-6.4H53.4c-4.2,0-6.3,2.1-6.3,6.4v22.2
	c0,2.4,0.5,4.2,1.5,5.4C49.6,116.8,51.2,117.3,53.4,117.3 M38.2,113V85.3c0-3.9,1.3-7,3.8-9.2c2.5-2.2,6-3.4,10.4-3.4h16.3
	c4.3,0,7.7,1.1,10.3,3.4c2.6,2.3,3.9,5.3,3.9,9.2v27.8c0,3.8-1.3,6.9-4.1,9.4c-2.7,2.5-6.1,3.8-10.2,3.8H52.4
	c-4.1,0-7.6-1.2-10.2-3.7C39.5,120.1,38.2,116.9,38.2,113"/>
<path fill="#FFFFFF" d="M107,103.3c-1.4-1.6-2.1-3.1-2.1-4.6c0-1.1,0.1-2,0.4-2.8c0.3-0.7,0.8-1.5,1.6-2.3l20.9-20.9l12.6,0
	l-25.6,25.8l26.7,27.7l-12.2,0L107,103.3z M95.6,55h8.9v71.3h-8.9V55z"/>
<path fill="#FFFFFF" d="M160.5,103.3c-1.4-1.6-2.1-3.1-2.1-4.6c0-1.1,0.1-2,0.4-2.8c0.3-0.7,0.8-1.5,1.6-2.3l20.9-20.9l12.6,0
	l-25.6,25.8l26.7,27.7l-12.2,0L160.5,103.3z M149.1,55h8.9v71.3h-8.9V55z"/>
<path fill="#FFFFFF" d="M215.5,117.3h14.3c4.2,0,6.3-2.2,6.3-6.7V88.1c0-4.3-2.1-6.4-6.3-6.4h-14.3c-4.2,0-6.3,2.1-6.3,6.4v22.2
	c0,2.4,0.5,4.2,1.5,5.4C211.6,116.8,213.2,117.3,215.5,117.3 M200.2,113V85.3c0-3.9,1.3-7,3.8-9.2c2.5-2.2,6-3.4,10.4-3.4h16.3
	c4.3,0,7.7,1.1,10.3,3.4c2.6,2.3,3.9,5.3,3.9,9.2v27.8c0,3.8-1.4,6.9-4.1,9.4c-2.7,2.5-6.1,3.8-10.2,3.8h-16.3
	c-4.1,0-7.6-1.2-10.2-3.7C201.6,120.1,200.2,116.9,200.2,113"/>
<rect x="257.7" y="55" fill="#FFFFFF" width="8.9" height="71.3"/>
<path fill="#FFFFFF" d="M295.2,117.3h12.1c2.8,0,4.4-0.2,5-0.7c0.6-0.5,1.1-1.2,1.6-2.1c0.3-0.8,0.6-1.6,0.7-2.4v-8.6
	c0-1.8-0.6-3.2-1.9-4.3c-1.3-1.1-3-1.6-5.3-1.6h-12.4c-2.1,0-3.8,0.5-5.1,1.5c-1.3,1-2,2.5-2,4.3v8.6c0,0.5,0.2,1.2,0.6,2.1
	c0.4,0.9,0.9,1.6,1.5,2.2C290.9,117,292.7,117.3,295.2,117.3 M310.7,72.8c2.3,0,4.1,0.2,5.4,0.6c1.3,0.4,2.5,1.2,3.6,2.4
	c1.1,1.2,2.1,2.6,2.8,4.3c0.8,1.7,1.1,3.4,1.1,5v27.5c0,3.6-1.3,6.8-3.9,9.5c-2.6,2.7-5.6,4.1-9.1,4.1h-17.9c-3.6,0-6.8-1.4-9.5-4.3
	c-2.7-2.9-4.1-6.2-4.1-10v-6.4c0-5.4,1.2-9.5,3.5-12.4c2.3-2.8,5.7-4.3,10-4.3h22v-3.5c0-2.5-1.8-3.8-5.3-3.8H279v-8.9H310.7z"/>
<path fill="#FFFFFF" d="M350.8,117.3h15.5c1.3,0,2.5-0.5,3.4-1.6c1-1.1,1.4-2.4,1.4-4v-24c0-4-1.9-6-5.8-6h-14.6
	c-3.8,0-5.7,1.9-5.7,5.8v23.4c0,1.8,0.5,3.4,1.5,4.6C347.5,116.7,349,117.3,350.8,117.3 M365.6,72.8c4.6,0,8.2,1.2,10.7,3.5
	c2.5,2.3,3.8,5.7,3.8,10.1v25.9c0,4.1-1.3,7.4-3.9,10.1c-2.6,2.6-5.7,3.9-9.4,3.9h-17.5c-3.6,0-6.7-1.4-9.3-4.3
	c-2.6-2.9-3.9-6.5-3.9-10.7V55h8.9v17.8H365.6z"/>
<path fill="#FFFFFF" d="M390.9,117.3H416h2.3c2.4,0,3.7-1.8,3.7-5.3v-4.2c0-3.4-1.7-5-5.2-5h-12.1c-4,0-6.9-0.6-8.6-1.9
	c-1.6-1.3-2.8-2.8-3.6-4.4c-0.8-1.6-1.2-3.2-1.2-4.8V85c0-2,0.2-3.7,0.7-5.1c0.5-1.4,1.3-2.7,2.5-3.9c2.1-2.2,5-3.3,8.7-3.3h27.8
	v8.9h-25.2h-1.8c-1.1,0-2,0.4-2.8,1.1c-0.7,0.7-1.1,1.7-1.1,2.9v3.9c0,1.2,0.5,2.2,1.4,3.2c1,0.8,2.2,1.2,3.6,1.2h13.3
	c3.4,0,6.4,1.2,8.9,3.6c2.5,2.4,3.8,5.3,3.8,8.8v8.4c0,3-1.2,5.7-3.5,8.1c-2.3,2.4-5,3.6-8,3.6h-28.5V117.3z"/>
<path fill-rule="evenodd" clip-rule="evenodd" fill="#FFFFFF" d="M489,35.2c0-1.3,1.1-2.6,2.6-1.7c1.6,1.1,0.8,3.5-1.3,4.2
	c-2.1,0.7-6.1,0-8.2,1.6c-0.2,0.1-0.4,0.3-0.5,0.5l-5.3-5.5c0,0-0.9-0.9-0.9-2.5V13.1l-2,1.8v6.4c0,1-0.5,1-0.5,1
	c-0.7,0-0.7-0.8-0.7-0.8v-5.1l-2,1.6v6.4c0.9,0.1,3.3-0.3,3.2,0.8v5.8c0,0.9-0.4,0.7-0.4,0.7c-3.6-0.7-3.7,2.4-3.7,2.4
	c-0.1,2.8,3.2,3.4,4.4,2c0.6-0.8,1.1-0.3,1.1-0.3l6.1,6.1c-0.1,1.6,0.4,2,0.4,2c0.1,0.1,0.3,0,0.2-0.6c0-0.2,0-0.5,0.1-0.6l6.6,6.6
	c3.8-2.2,3.2-6.9,3.2-6.9c-3.4-0.7-6.5,1-6.5,1l-2.2-2.3c2.2-1.2,7.4-1.1,7.4-1.1c2.6-0.2,3.4-1,3.4-1c2.9-2.5,0.9-6-0.6-7.2
	c-1.3-1-0.2-2.5-0.2-2.5c0.2-0.3-0.2-0.6-0.5-0.3c-0.4,0.5-0.9,0.4-1.8,2.2c-0.3,0.5-1,0.8-1,0.8c-2.5,0.8-1.5,3.9-1.5,3.9
	s0.5,1.1,1,0.8c0,0,0.2-0.2,0-0.6C489.2,35.7,489,35.4,489,35.2 M471.9,34.9c-0.5,0-1-0.4-1-1c0-0.5,0.4-1,1-1c0.5,0,1,0.4,1,1
	C472.9,34.5,472.4,34.9,471.9,34.9 M489.4,43.9c0.3,1.8-1.2,2.4-1.2,2.4c-1.1-0.7-1.5-1.6-1.5-1.6C487.6,43.2,489.4,43.9,489.4,43.9
	"/>
<path fill-rule="evenodd" clip-rule="evenodd" fill="#FFFFFF" d="M480.4,17.4c-0.9-0.9-1.1-2.6,0.6-3.1c1.9-0.4,3.1,1.9,2.1,3.9
	c-1,2-4.2,4.3-4.7,7c0,0.2,0,0.5,0,0.7l-7.6-0.1c0,0-1.3,0-2.4-1.1l-13.2-13.2l0,3l4.4,4.2c0.7,0.7,0.3,1.1,0.3,1.1
	c-0.5,0.5-1-0.1-1-0.1l-3.6-3.6l0,2.8l4.5,4.5c0.7-0.6,1.9-2.7,2.6-2l4.1,4.1c0.7,0.6,0.2,0.8,0.2,0.8c-3,2.1-1,4.3-1,4.3
	c1.9,2.1,4.7,0.1,4.5-1.7c-0.1-0.9,0.5-1,0.5-1l8.6,0c1,1.2,1.7,1.1,1.7,1.1c0.1,0,0.2-0.2-0.3-0.6c-0.2-0.2-0.3-0.3-0.4-0.5h9.3
	c1.2-4.2-2.6-7.1-2.6-7.1c-2.9,1.9-3.9,5.3-3.9,5.3l-3.2-0.1c0.7-2.4,4.5-6,4.5-6c1.7-2,1.7-3.1,1.7-3.1c0.3-3.8-3.6-4.9-5.5-4.7
	c-1.6,0.2-1.9-1.6-1.9-1.6c-0.1-0.4-0.6-0.2-0.5,0.1c0.1,0.6-0.3,0.9,0.3,2.8c0.1,0.6-0.2,1.2-0.2,1.2c-1.2,2.4,1.7,3.8,1.7,3.8
	s1.2,0.4,1.3-0.2c0,0,0-0.3-0.4-0.5C480.9,17.7,480.5,17.6,480.4,17.4 M468,29.4c-0.4,0.4-1,0.4-1.4,0c-0.4-0.4-0.4-1,0-1.4
	c0.4-0.4,1-0.4,1.4,0C468.4,28.4,468.4,29,468,29.4 M486.8,23.3c1.4,1.1,0.9,2.5,0.9,2.5c-1.3,0.3-2.2-0.1-2.2-0.1
	C485.1,24.1,486.8,23.3,486.8,23.3"/>
<path fill-rule="evenodd" clip-rule="evenodd" fill="#FFFFFF" d="M483.3,54c0.9-0.9,2.6-1.1,3.1,0.6c0.4,1.9-1.9,3.1-3.9,2.1
	c-2-1-4.3-4.2-7-4.7c-0.2,0-0.5,0-0.7,0l0.1-7.6c0,0,0-1.3,1.1-2.4l13.2-13.2l-3,0l-4.2,4.4c-0.7,0.7-1.1,0.3-1.1,0.3
	c-0.5-0.5,0.1-1,0.1-1l3.6-3.6l-2.8,0l-4.5,4.5c0.6,0.7,2.7,1.9,2,2.6l-4.1,4.1c-0.6,0.7-0.8,0.2-0.8,0.2c-2.1-3-4.3-1-4.3-1
	c-2.1,1.9-0.1,4.7,1.7,4.5c0.9-0.1,1,0.5,1,0.5l0,8.6c-1.2,1-1.2,1.7-1.2,1.7c0,0.1,0.2,0.2,0.6-0.3c0.2-0.2,0.3-0.3,0.5-0.4v9.3
	c4.2,1.2,7.1-2.6,7.1-2.6c-1.9-2.9-5.3-3.9-5.3-3.9l0.1-3.2c2.4,0.7,6,4.5,6,4.5c2,1.7,3.1,1.7,3.1,1.7c3.8,0.3,4.9-3.6,4.7-5.5
	c-0.2-1.6,1.6-1.9,1.6-1.9c0.4-0.1,0.2-0.6-0.1-0.5c-0.6,0.1-0.9-0.4-2.8,0.3c-0.6,0.1-1.2-0.2-1.2-0.2c-2.4-1.2-3.8,1.7-3.8,1.7
	s-0.4,1.2,0.2,1.3c0,0,0.3,0,0.5-0.4C483,54.5,483.1,54.1,483.3,54 M471.3,41.6c-0.4-0.4-0.4-1,0-1.4c0.4-0.4,1-0.4,1.4,0
	c0.4,0.4,0.4,1,0,1.4C472.3,42,471.7,42,471.3,41.6 M477.4,60.4c-1.1,1.4-2.5,0.9-2.5,0.9c-0.3-1.3,0.1-2.2,0.1-2.2
	C476.6,58.7,477.4,60.4,477.4,60.4"/>
<path fill-rule="evenodd" clip-rule="evenodd" fill="#FFFFFF" d="M465.4,62.8c1.3,0,2.6,1.1,1.7,2.6c-1.1,1.6-3.5,0.8-4.2-1.3
	c-0.7-2.1,0-6.1-1.6-8.2c-0.1-0.2-0.3-0.4-0.5-0.5l5.5-5.3c0,0,0.9-0.9,2.5-0.9h18.6l-2.1-2h-6c-1,0-1-0.5-1-0.5
	c0-0.7,0.8-0.7,0.8-0.7h5.5l-2-2h-6.4c-0.1,0.9,0.3,3.3-0.8,3.2h-5.8c-0.9,0-0.7-0.4-0.7-0.4c0.7-3.6-2.4-3.7-2.4-3.7
	c-2.8-0.1-3.4,3.2-2,4.4c0.8,0.6,0.3,1.1,0.3,1.1l-6.1,6.1c-1.6-0.1-2.1,0.4-2.1,0.4c-0.1,0.1,0,0.3,0.6,0.2c0.2,0,0.5,0,0.6,0.1
	l-6.6,6.6c2.2,3.8,6.9,3.2,6.9,3.2c0.7-3.4-1-6.5-1-6.5l2.3-2.2c1.2,2.2,1.1,7.4,1.1,7.4c0.2,2.6,1,3.4,1,3.4c2.5,2.9,6,0.9,7.2-0.6
	c1-1.3,2.5-0.2,2.5-0.2c0.3,0.2,0.6-0.2,0.3-0.4c-0.5-0.4-0.4-0.9-2.2-1.8c-0.5-0.3-0.8-1-0.8-1c-0.8-2.5-3.9-1.5-3.9-1.5
	s-1.1,0.5-0.8,1c0,0,0.2,0.2,0.6,0C464.9,63,465.2,62.8,465.4,62.8 M465.7,45.6c0-0.5,0.4-1,1-1c0.5,0,1,0.4,1,1s-0.4,1-1,1
	C466.1,46.6,465.7,46.2,465.7,45.6 M456.7,63.2c-1.8,0.3-2.4-1.2-2.4-1.2c0.7-1.1,1.6-1.5,1.6-1.5C457.4,61.4,456.7,63.2,456.7,63.2
	"/>
<path fill-rule="evenodd" clip-rule="evenodd" fill="#FFFFFF" d="M446.2,56.8c0.9,0.9,1.1,2.6-0.6,3.1c-1.9,0.4-3.1-1.9-2.1-3.9
	c1-2,4.2-4.3,4.7-7c0-0.2,0-0.5,0-0.7l7.6,0.1c0,0,1.3,0,2.4,1.1l13.3,13.2v-2.7l-4.5-4.5c-0.7-0.7-0.3-1.1-0.3-1.1
	c0.5-0.5,1,0.1,1,0.1l3.7,3.6v-2.5l-4.4-4.5c-0.7,0.6-2.1,2.5-2.8,1.8l-4.1-4.1c-0.7-0.6-0.2-0.8-0.2-0.8c3-2.1,1-4.3,1-4.3
	c-1.9-2.1-4.7-0.1-4.5,1.7c0.1,0.9-0.5,1-0.5,1l-8.6,0c-1-1.2-1.7-1.2-1.7-1.2c-0.1,0-0.2,0.2,0.3,0.6c0.2,0.2,0.3,0.3,0.4,0.5H437
	c-1.2,4.2,2.6,7.1,2.6,7.1c2.9-1.9,3.9-5.3,3.9-5.3l3.2,0.1c-0.7,2.4-4.5,6-4.5,6c-1.7,2-1.7,3.1-1.7,3.1c-0.3,3.8,3.6,4.9,5.5,4.7
	c1.6-0.2,1.9,1.6,1.9,1.6c0.1,0.4,0.6,0.2,0.5-0.1c-0.1-0.6,0.4-0.9-0.3-2.8c-0.1-0.5,0.2-1.2,0.2-1.2c1.2-2.4-1.7-3.8-1.7-3.8
	s-1.2-0.4-1.3,0.2c0,0,0,0.3,0.4,0.5C445.7,56.5,446.1,56.6,446.2,56.8 M458.6,44.8c0.4-0.4,1-0.4,1.4,0c0.4,0.4,0.4,1,0,1.4
	c-0.4,0.4-1,0.4-1.4,0C458.2,45.8,458.2,45.2,458.6,44.8 M439.8,50.9c-1.4-1.1-0.9-2.5-0.9-2.5c1.3-0.3,2.2,0.1,2.2,0.1
	C441.5,50.1,439.8,50.9,439.8,50.9"/>
<path fill-rule="evenodd" clip-rule="evenodd" fill="#FFFFFF" d="M437.8,39.3c0,1.3-1.1,2.6-2.6,1.7c-1.6-1.1-0.8-3.5,1.3-4.2
	c2.1-0.7,6.1,0,8.2-1.6c0.2-0.1,0.4-0.3,0.5-0.5l5.3,5.5c0,0,0.9,0.9,0.9,2.5v18.6l2-2.2v-6c0-1,0.5-1,0.5-1c0.7,0,0.7,0.8,0.7,0.8
	v5.1l2-2v-6c-0.9-0.1-3.3,0.3-3.2-0.8v-5.8c0-0.9,0.4-0.7,0.4-0.7c3.6,0.7,3.7-2.4,3.7-2.4c0.1-2.8-3.3-3.4-4.4-2
	c-0.6,0.8-1.1,0.3-1.1,0.3l-6.1-6.1c0.1-1.6-0.4-2.1-0.4-2.1c-0.1-0.1-0.3,0-0.2,0.6c0,0.2,0,0.5-0.1,0.6l-6.6-6.6
	c-3.8,2.2-3.2,6.9-3.2,6.9c3.4,0.7,6.5-1,6.5-1l2.2,2.3c-2.2,1.2-7.4,1.1-7.4,1.1c-2.6,0.2-3.4,1-3.4,1c-2.9,2.5-0.9,6,0.6,7.2
	c1.3,1,0.2,2.5,0.2,2.5c-0.2,0.3,0.2,0.6,0.5,0.3c0.4-0.5,0.9-0.4,1.8-2.2c0.3-0.5,1-0.8,1-0.8c2.5-0.8,1.5-3.9,1.5-3.9
	s-0.5-1.1-1-0.8c0,0-0.3,0.2,0,0.6C437.6,38.7,437.8,39.1,437.8,39.3 M455,39.6c0.5,0,1,0.4,1,1c0,0.5-0.4,1-1,1c-0.5,0-1-0.4-1-1
	C454,40,454.4,39.6,455,39.6 M437.4,30.6c-0.3-1.8,1.2-2.4,1.2-2.4c1.1,0.7,1.5,1.6,1.5,1.6C439.2,31.2,437.4,30.6,437.4,30.6"/>
<path fill-rule="evenodd" clip-rule="evenodd" fill="#FFFFFF" d="M443.5,20.2c-0.9,0.9-2.6,1.1-3.1-0.6c-0.4-1.9,1.9-3.1,3.9-2.1
	c2,1,4.3,4.2,7,4.7c0.2,0,0.5,0,0.7,0l-0.1,7.6c0,0,0,1.3-1.1,2.4l-13.2,13.3h2.7l4.5-4.5c0.7-0.7,1.1-0.3,1.1-0.3
	c0.5,0.5-0.1,1-0.1,1l-3.6,3.7h2.5l4.5-4.4c-0.6-0.7-2.5-2.1-1.8-2.8l4.1-4.1c0.6-0.7,0.8-0.2,0.8-0.2c2.1,3,4.3,1,4.3,1
	c2.1-1.9,0.1-4.7-1.7-4.5c-0.9,0.1-1-0.5-1-0.5l0-8.6c1.2-1,1.2-1.7,1.2-1.7c0-0.1-0.2-0.2-0.6,0.3c-0.2,0.2-0.3,0.3-0.5,0.4v-9.3
	c-4.2-1.2-7.1,2.6-7.1,2.6c1.9,2.9,5.3,3.9,5.3,3.9l-0.1,3.2c-2.4-0.7-6-4.5-6-4.5c-2-1.7-3.1-1.7-3.1-1.7c-3.8-0.3-4.9,3.6-4.7,5.5
	c0.2,1.6-1.6,1.9-1.6,1.9c-0.4,0.1-0.2,0.6,0.1,0.5c0.6-0.1,0.9,0.4,2.8-0.3c0.6-0.1,1.2,0.2,1.2,0.2c2.4,1.2,3.8-1.7,3.8-1.7
	s0.4-1.2-0.2-1.3c0,0-0.3,0-0.5,0.4C443.8,19.7,443.7,20.1,443.5,20.2 M455.5,32.5c0.4,0.4,0.4,1,0,1.4c-0.4,0.4-1,0.4-1.4,0
	c-0.4-0.4-0.4-1,0-1.4C454.5,32.1,455.1,32.1,455.5,32.5 M449.4,13.8c1.1-1.4,2.5-0.9,2.5-0.9c0.3,1.3-0.1,2.2-0.1,2.2
	C450.2,15.5,449.4,13.8,449.4,13.8"/>
<path fill-rule="evenodd" clip-rule="evenodd" fill="#FFFFFF" d="M461.3,11.5c-1.3,0-2.6-1.1-1.7-2.6c1.1-1.6,3.5-0.8,4.2,1.3
	c0.7,2.1,0,6.1,1.6,8.2c0.1,0.2,0.3,0.4,0.5,0.5l-5.5,5.3c0,0-0.9,0.9-2.5,0.9h-18.6l2.2,2h6c1,0,1,0.5,1,0.5c0,0.7-0.8,0.7-0.8,0.7
	h-5.1l1.6,2h6.4c0.1-0.9-0.3-3.3,0.8-3.2h5.8c0.9,0,0.7,0.4,0.7,0.4c-0.7,3.6,2.4,3.7,2.4,3.7c2.8,0.1,3.4-3.2,2-4.4
	c-0.8-0.6-0.3-1.1-0.3-1.1l6.1-6.1c1.6,0.1,2.1-0.4,2.1-0.4c0.1-0.1,0-0.3-0.6-0.2c-0.2,0-0.5,0-0.6-0.1l6.6-6.6
	c-2.2-3.8-6.9-3.2-6.9-3.2c-0.7,3.4,1,6.5,1,6.5l-2.3,2.2c-1.2-2.2-1.1-7.4-1.1-7.4c-0.2-2.6-1-3.4-1-3.4c-2.5-2.9-6-0.9-7.2,0.6
	c-1,1.3-2.5,0.2-2.5,0.2c-0.3-0.2-0.6,0.2-0.3,0.4c0.5,0.4,0.4,0.9,2.2,1.8c0.5,0.3,0.8,1,0.8,1c0.8,2.5,3.9,1.5,3.9,1.5
	s1.1-0.5,0.8-1c0,0-0.2-0.2-0.6,0C461.9,11.3,461.5,11.5,461.3,11.5 M461,28.7c0,0.5-0.4,1-1,1c-0.5,0-1-0.4-1-1c0-0.5,0.4-1,1-1
	C460.6,27.7,461,28.1,461,28.7 M470,11.1c1.8-0.3,2.4,1.2,2.4,1.2c-0.7,1.1-1.6,1.5-1.6,1.5C469.4,12.9,470,11.1,470,11.1"/>
<path fill="#FFFFFF" d="M353.5,152.4c0,1.4-0.3,2.4-1,3.1c-0.7,0.8-1.7,1.2-3,1.2h-9.4v-18.8h9.4c2.7,0,4,1.4,4,4.2v1.5
	c0,0.9-0.1,1.6-0.3,2.1c-0.2,0.6-0.8,1.1-1.5,1.5c0.2,0.1,0.5,0.3,0.9,0.5c0.5,0.4,0.8,1.1,0.9,2.1
	C353.5,150.2,353.5,151,353.5,152.4 M350.8,144v-1.4c0-1.3-0.8-2-2.3-2h-5.7v5.3h5.8C350.1,145.9,350.8,145.3,350.8,144
	 M350.8,151.9v-1.3c0-1.3-0.7-2-2.1-2h-5.9v5.3h5.9C350.1,154,350.8,153.3,350.8,151.9"/>
<path fill="#FFFFFF" d="M368.2,153.2c0,1.1-0.3,1.9-0.9,2.5c-0.6,0.6-1.4,1-2.5,1h-4.6c-1.1,0-2-0.3-2.6-0.8
	c-0.7-0.6-1.1-1.4-1.1-2.5v-2.5c0-1.1,0.3-2,1-2.6c0.6-0.6,1.5-0.9,2.6-0.9h5.8c0-0.8-0.1-1.4-0.3-1.7c-0.3-0.4-0.8-0.6-1.5-0.6
	h-7.5v-2.4h7.8c2.6,0,3.9,1.2,3.9,3.6V153.2z M365.8,152.7V150c0-0.3-0.2-0.5-0.6-0.5h-4.7c-1.2,0-1.7,0.6-1.7,1.7v1.4
	c0,0.5,0.2,0.9,0.5,1.2c0.3,0.3,0.8,0.4,1.2,0.4h3.5C365.3,154.3,365.8,153.7,365.8,152.7"/>
<path fill="#FFFFFF" d="M388.3,156.7h-2.4v-9.8c0-1-0.3-1.6-1-1.8c-0.3-0.1-1-0.1-2.3-0.1c-0.5,0-1,0.2-1.3,0.6
	c-0.2,0.3-0.3,0.7-0.3,1.4v9.8h-2.4v-9.8c0-1-0.3-1.6-0.9-1.8c-0.3-0.1-1-0.2-2.2-0.2c-1.3,0-1.9,0.6-1.9,1.9v9.8h-2.4v-10.4
	c0-2.5,1.2-3.7,3.5-3.7h2.2c0.7,0,1.3,0.1,1.7,0.3c0.4,0.2,0.8,0.6,1.2,1.2c0.7-1,1.6-1.5,2.9-1.5h2.2c1.1,0,1.9,0.3,2.5,1
	c0.6,0.7,0.9,1.6,0.9,2.7V156.7z"/>
<path fill="#FFFFFF" d="M403,153.2c0,1.1-0.3,1.9-0.9,2.5c-0.6,0.6-1.4,1-2.5,1H395c-1.1,0-2-0.3-2.6-0.8c-0.7-0.6-1.1-1.4-1.1-2.5
	v-2.5c0-1.1,0.3-2,1-2.6c0.6-0.6,1.5-0.9,2.6-0.9h5.8c0-0.8-0.1-1.4-0.3-1.7c-0.3-0.4-0.8-0.6-1.5-0.6h-7.5v-2.4h7.8
	c2.6,0,3.9,1.2,3.9,3.6V153.2z M400.6,152.7V150c0-0.3-0.2-0.5-0.6-0.5h-4.7c-1.2,0-1.7,0.6-1.7,1.7v1.4c0,0.5,0.2,0.9,0.5,1.2
	c0.3,0.3,0.8,0.4,1.2,0.4h3.5C400.1,154.3,400.6,153.7,400.6,152.7"/>
<path fill="#FFFFFF" d="M408.4,156.7H406v-19.1h2.4V156.7z M417.1,156.7h-3l-5.2-6.2c-0.3-0.3-0.4-0.7-0.4-1c0-0.3,0.2-0.7,0.5-1.1
	l4.9-5.8h2.9l-5.7,6.9L417.1,156.7z"/>
<path fill="#FFFFFF" d="M430.5,153.2c0,1.2-0.4,2.2-1.2,2.8c-0.6,0.5-1.4,0.7-2.5,0.7h-4.2c-1.3,0-2.2-0.3-2.9-0.9
	c-0.6-0.6-1-1.5-1-2.6v-7c0-1.2,0.4-2.2,1.2-2.8c0.6-0.5,1.5-0.7,2.6-0.7h4.2c1.2,0,2,0.2,2.6,0.7c0.8,0.7,1.2,1.6,1.2,2.9V153.2z
	 M428.1,152.5v-5.7c0-0.6-0.2-1.1-0.6-1.5c-0.3-0.3-0.8-0.4-1.4-0.4h-2.9c-0.7,0-1.2,0.1-1.5,0.4c-0.4,0.3-0.6,0.8-0.6,1.5v5.7
	c0,0.6,0.2,1.1,0.6,1.4c0.3,0.2,0.7,0.4,1.3,0.4h3.2c0.5,0,1-0.1,1.2-0.4C427.9,153.6,428.1,153.1,428.1,152.5"/>
</svg>
