<?xml version="1.0" encoding="UTF-8" standalone="no"?>
<svg width="1024px" height="492px" viewBox="0 0 1024 492" version="1.1" xmlns="http://www.w3.org/2000/svg" xmlns:xlink="http://www.w3.org/1999/xlink" xmlns:sketch="http://www.bohemiancoding.com/sketch/ns">
    <!-- Generator: Sketch 3.2.2 (9983) - http://www.bohemiancoding.com/sketch -->
    <title>yeleman_white</title>
    <desc>Created with Sketch.</desc>
    <defs></defs>
    <g id="Page-1" stroke="none" stroke-width="1" fill="none" fill-rule="evenodd" sketch:type="MSPage">
        <g id="yeleman_white" sketch:type="MSLayerGroup" fill="#FFFFFF">
            <g id="Group" sketch:type="MSShapeGroup">
                <path d="M5.5,352.7 L0,304.9 C0,304.9 38.9,304.9 41.6,322.6 L46.4,356.2 C50.7,387.3 62.8,393.7 62.8,393.7 C62.8,393.7 75.3,384.8 79.4,356.2 L84.2,322.6 C86.6,304.9 125.8,304.9 126,304.9 L120.2,352.7 C116.3,383.9 95.5,409.4 80.6,421 L71.2,428.2 C56,439.8 44.6,450.6 44.6,466.9 C44.6,477.7 49.4,486.4 49.4,486.4 C42.4,489.8 36.3,491.2 30.6,491.2 C15.9,491.2 6.5,480.1 6.5,461.8 C6.5,439.4 21.7,427.8 40.5,414 C23.4,402.7 8.4,378.4 5.5,352.7 L5.5,352.7 Z" id="Shape"></path>
                <path d="M251.6,246.7 C258.4,246.7 290.9,246.9 290.9,265.1 L290.9,386.4 C290.9,399.5 292.8,422.2 307.1,423.4 C300.8,433.5 291.9,434.7 284.9,434.7 C262,434.7 251.4,415.8 251.4,394.1 L251.4,246.7 L251.6,246.7 L251.6,246.7 Z" id="Shape"></path>
                <path d="M226.1,385.1 L221.2,379.8 L220.7,387.1 C219.7,402.3 209.1,409.5 187.8,409.5 C176.2,409.5 170.1,404.6 170.1,395.2 C170.1,387.7 168.4,381.7 180.9,380.7 C191.7,379.8 195.4,372.3 195.4,358.3 L195.4,352.3 L186.5,352.3 C174,352.3 172,349.4 172,340.5 C172,334.9 174.2,328.6 188.4,328.6 C218.9,328.6 219.3,345 219.3,350.4 L219.3,357.9 L224.2,352.6 C235.3,341.8 239,330.4 235,320.3 C229.9,307.5 209.7,299.8 185.5,299.8 C153.6,299.8 130.5,314.8 130.5,337.9 L130.5,342.3 C130.5,351.7 136.5,361.2 143.1,366.4 C134.9,371.9 130.5,383 130.5,392.5 L130.5,397.8 C130.5,421.9 153.9,438.1 186.3,438.1 C211,438.1 229.1,430.8 234.6,417.8 C238.8,407.6 236.2,395.8 226.1,385.1 L226.1,385.1 Z" id="Shape"></path>
                <path d="M412.5,385.1 L407.6,379.8 L407.1,387.1 C405.9,402.3 395.5,409.5 374.2,409.5 C362.6,409.5 356.5,404.6 356.5,395.2 C356.5,387.7 357.2,381.7 369.6,380.7 C380.4,379.8 386.5,372.3 386.5,358.3 L386.5,352.3 L372.7,352.3 C360.2,352.3 358.2,349.4 358.2,340.5 C358.2,334.9 359.6,328.6 373.6,328.6 C404.1,328.6 403.5,345 403.5,350.4 L403.5,357.9 L409.5,352.6 C420.6,341.8 424.9,330.4 420.8,320.3 C415.7,307.5 399.1,299.8 374.9,299.8 C343,299.8 323.4,314.8 323.4,337.9 L323.4,342.3 C323.4,351.7 329.4,361.2 336,366.4 C327.8,371.9 323.4,383 323.4,392.5 L323.4,397.8 C323.4,421.9 343.5,438.1 376,438.1 C400.7,438.1 417.1,430.8 422.8,417.8 C426.8,407.6 422.6,395.8 412.5,385.1 L412.5,385.1 Z" id="Shape"></path>
                <path d="M522.9,349.8 C522.9,339.9 517.1,332.6 503.4,332.6 C495,332.6 483.6,334.5 483.6,334.5 L483.6,435 C483.6,435 442.6,435 442.6,416.6 L442.6,303 C442.6,303 452.3,308.5 470.8,308.5 C482.1,308.5 493,303.7 505.3,303.7 C528.7,303.7 543.9,313.6 543.9,313.6 C543.9,313.6 557.4,303.7 584,303.7 C613.5,303.7 635.4,319.2 635.4,348.9 L635.4,434.9 C635.4,434.9 594.4,434.4 594.4,416.5 L594.4,353.4 C594.4,337.7 589.5,332.2 579.2,332.2 C570.2,332.2 563.7,337.5 563.7,346.9 L563.7,435.1 C563.7,435.1 522.7,434.1 522.7,416.7 L522.7,349.8 L522.9,349.8 L522.9,349.8 Z" id="Shape"></path>
                <path d="M674.1,360.7 C665.2,348.9 663,340.2 663,332.9 C663,308.7 695.6,303.9 712.2,303.9 C751.5,303.9 770.4,319.1 770.4,346.9 L770.4,436.3 C763.6,432.7 758.1,432 751.3,432 C738.5,432 725.9,436.3 711.7,436.3 C684.7,436.3 659.3,427.1 659.3,396.9 C659.3,352.9 721.9,361.1 733,345 C733,339.2 728.7,332.5 713.2,332.5 C694.6,332.4 674.1,337.8 674.1,360.7 L674.1,360.7 Z M731.1,373.7 C731.1,383.8 698.7,380 698.7,395.4 C698.7,406.7 706.2,409.1 714.4,409.1 C723.1,409.1 731.3,406.4 731.3,406.4 L731.3,373.8 L731.1,373.8 L731.1,373.7 Z" id="Shape"></path>
                <path d="M972.8,37.3 L976.9,42.1 C979.5,39.9 982.9,38.9 986.3,39 C989.7,39.2 992.8,40.9 995,43.4 L999.8,39.3 C996.4,35.4 991.8,33.2 986.7,32.6 C981.7,32.3 976.7,34 972.8,37.3 L972.8,37.3 Z M987.8,16.8 C978.4,16.1 969.4,19 962.2,25.2 L966.3,30 C972.1,25.1 979.6,22.5 987.1,23.2 C994.8,23.7 1001.8,27.3 1006.7,33.1 L1011.5,29 C1005.7,21.7 997.2,17.5 987.8,16.8 L987.8,16.8 Z M952,13 L956.1,17.8 C965.1,9.9 976.8,6.2 988.5,7 C1000.4,7.9 1011.2,13.3 1019,22.4 L1023.8,18.3 C1005.6,-2.8 973.3,-5.2 952,13 L952,13 Z M985.4,45.6 C982.2,45.4 979.4,48 979.4,51.2 C979.2,54.8 982.5,53.4 982.3,56.3 C980.9,86.7 979.6,128.2 978,174.1 C977,174.4 975.6,175 974.4,175.5 C974.1,171.6 973.2,165.3 971.2,154.3 C967.8,136.7 971.5,133.1 953.5,133 C954,129.8 954.7,127.4 955.5,126.9 C958.6,125 961,121.8 961.3,113.6 C963,112.7 964.5,107.1 962.2,106.6 C961.9,102.7 963.9,87.1 951.1,85.8 L945.6,85.8 C934,86.7 933.3,102.2 933.8,106.6 C931.4,106.6 933.3,111.7 935,112.6 C935.3,120.6 937.7,123.7 939.9,125.2 C941.8,126.4 942.6,129.5 943.1,133.1 C930.3,133.4 927.6,135.7 927.1,144.5 C922.7,139.6 917.7,136.6 912.3,136.6 C895.9,136.6 882.8,162.7 882.8,194.8 C882.8,225.7 895.1,280.8 910.4,285.1 C909,289.4 907.8,293.3 906.5,296.2 C917.3,301.3 933,314.6 933.5,328.1 C934.2,330.8 934.4,333.2 934,335.1 C933.1,338.3 934,340.9 934,345.2 C934,348.3 934,350.8 934.2,352.9 C934.4,360.9 938.3,394 938.6,406.7 C938.6,407 938.1,408.7 937.9,410.8 C937.9,411.7 938.2,412.5 938.1,413.2 C935,436.4 912.8,434.9 929.2,437.1 C932.4,437.6 974.8,437.4 974.8,437.4 C977.4,355.7 980.4,270.5 983,198.8 C983.9,197.8 984.4,196.1 984.7,193.5 C985.4,187.5 984.9,183.4 983.7,180.7 C985.6,130 986.9,86.7 987.6,56.3 C987.6,53.6 990.7,55.1 990.7,51.5 C991.2,48.4 988.7,45.6 985.4,45.6 L985.4,45.6 Z M969.7,432.4 C965.6,429.2 960,423.2 959.1,411.1 C958.9,409.2 958.6,408.4 958.6,408 C958.9,395.4 964.7,337.3 963.5,331.2 C963.8,324.9 964.4,318.1 964.9,313.1 C968.3,310.4 971.6,307.8 974.1,305.6 C972.6,350.3 971.1,394.1 969.7,432.4 L969.7,432.4 Z" id="Shape"></path>
                <path d="M874.5,349.8 C874.5,338.5 873,332.6 859.3,332.6 C850.9,332.6 843.8,334.8 843.8,334.8 L843.8,435 C843.8,435 802.8,435 802.8,416.6 L802.8,303 C802.8,303 811.7,308.8 827.5,308.8 C839.3,308.8 849,303.7 861.6,303.7 C888.6,303.7 915.2,312.7 915.2,346.2 L915.2,434.9 C915.2,434.9 874.2,434.4 874.2,416.5 L874.2,349.8 L874.5,349.8 L874.5,349.8 Z" id="Shape"></path>
            </g>
        </g>
    </g>
</svg>