<?xml version="1.0" encoding="utf-8"?>
<!-- Generator: Adobe Illustrator 18.0.0, SVG Export Plug-In . SVG Version: 6.00 Build 0)  -->
<!DOCTYPE svg PUBLIC "-//W3C//DTD SVG 1.1//EN" "http://www.w3.org/Graphics/SVG/1.1/DTD/svg11.dtd">
<svg version="1.1" id="Layer_1" xmlns="http://www.w3.org/2000/svg" xmlns:xlink="http://www.w3.org/1999/xlink" x="0px" y="0px"
	 viewBox="0 0 600 287.4" enable-background="new 0 0 600 287.4" xml:space="preserve">
<g>
	<path fill="#FFFFFF" d="M3.2,206.2l-3.2-28c0,0,22.8,0,24.4,10.4l2.8,19.7c2.5,18.2,9.6,22,9.6,22s7.3-5.2,9.7-22l2.8-19.7
		c1.4-10.4,24.4-10.4,24.5-10.4l-3.4,28c-2.3,18.3-14.5,33.2-23.2,40l-5.5,4.2c-8.9,6.8-15.6,13.1-15.6,22.7
		c0,6.3,2.8,11.4,2.8,11.4c-4.1,2-7.7,2.8-11,2.8c-8.6,0-14.1-6.5-14.1-17.2c0-13.1,8.9-19.9,19.9-28
		C13.7,235.5,4.9,221.3,3.2,206.2z"/>
	<path fill="#FFFFFF" d="M147.4,144.1c4,0,23,0.1,23,10.8v71.1c0,7.7,1.1,21,9.5,21.7c-3.7,5.9-8.9,6.6-13,6.6
		c-13.4,0-19.6-11.1-19.6-23.8V144.1z"/>
	<path fill="#FFFFFF" d="M132.5,225.2l-2.9-3.1l-0.3,4.3c-0.6,8.9-6.8,13.1-19.3,13.1c-6.8,0-10.4-2.9-10.4-8.4c0-4.4-1-7.9,6.3-8.5
		c6.3-0.5,8.5-4.9,8.5-13.1v-3.5h-5.2c-7.3,0-8.5-1.7-8.5-6.9c0-3.3,1.3-7,9.6-7c17.9,0,18.1,9.6,18.1,12.8v4.4l2.9-3.1
		c6.5-6.3,8.7-13,6.3-18.9c-3-7.5-14.8-12-29-12c-18.7,0-32.2,8.8-32.2,22.3v2.6c0,5.5,3.5,11.1,7.4,14.1c-4.8,3.2-7.4,9.7-7.4,15.3
		v3.1c0,14.1,13.7,23.6,32.7,23.6c14.5,0,25.1-4.3,28.3-11.9C139.9,238.4,138.4,231.5,132.5,225.2z"/>
	<path fill="#FFFFFF" d="M241.7,225.2l-2.9-3.1l-0.3,4.3c-0.7,8.9-6.8,13.1-19.3,13.1c-6.8,0-10.4-2.9-10.4-8.4
		c0-4.4,0.4-7.9,7.7-8.5c6.3-0.5,9.9-4.9,9.9-13.1v-3.5h-8.1c-7.3,0-8.5-1.7-8.5-6.9c0-3.3,0.8-7,9-7c17.9,0,17.5,9.6,17.5,12.8v4.4
		l3.5-3.1c6.5-6.3,9-13,6.6-18.9c-3-7.5-12.7-12-26.9-12c-18.7,0-30.2,8.8-30.2,22.3v2.6c0,5.5,3.5,11.1,7.4,14.1
		c-4.8,3.2-7.4,9.7-7.4,15.3v3.1c0,14.1,11.8,23.6,30.8,23.6c14.5,0,24.1-4.3,27.4-11.9C250.1,238.4,247.6,231.5,241.7,225.2z"/>
	<path fill="#FFFFFF" d="M306.4,204.5c0-5.8-3.4-10.1-11.4-10.1c-4.9,0-11.6,1.1-11.6,1.1v58.9c0,0-24,0-24-10.8v-66.5
		c0,0,5.7,3.2,16.5,3.2c6.6,0,13-2.8,20.2-2.8c13.7,0,22.6,5.8,22.6,5.8s7.9-5.8,23.5-5.8c17.3,0,30.1,9.1,30.1,26.5v50.4
		c0,0-24-0.3-24-10.8v-37c0-9.2-2.9-12.4-8.9-12.4c-5.3,0-9.1,3.1-9.1,8.6v51.7c0,0-24-0.6-24-10.8V204.5z"/>
	<path fill="#FFFFFF" d="M395,210.9c-5.2-6.9-6.5-12-6.5-16.3c0-14.2,19.1-17,28.8-17c23,0,34.1,8.9,34.1,25.2v52.4
		c-4-2.1-7.2-2.5-11.2-2.5c-7.5,0-14.9,2.5-23.2,2.5c-15.8,0-30.7-5.4-30.7-23.1c0-25.8,36.7-21,43.2-30.4c0-3.4-2.5-7.3-11.6-7.3
		C407,194.3,395,197.5,395,210.9z M428.4,218.5c0,5.9-19,3.7-19,12.7c0,6.6,4.4,8,9.2,8c5.1,0,9.9-1.6,9.9-1.6V218.5z"/>
	<path fill="#FFFFFF" d="M570,21.4l2.4,2.8c1.5-1.3,3.5-1.9,5.5-1.8c2,0.1,3.8,1.1,5.1,2.6l2.8-2.4c-2-2.3-4.7-3.6-7.7-3.9
		C575.2,18.5,572.3,19.5,570,21.4z M578.8,9.4c-5.5-0.4-10.8,1.3-15,4.9l2.4,2.8c3.4-2.9,7.8-4.4,12.2-4c4.5,0.3,8.6,2.4,11.5,5.8
		l2.8-2.4C589.3,12.3,584.3,9.8,578.8,9.4z M557.8,7.2l2.4,2.8c5.3-4.6,12.1-6.8,19-6.3c7,0.5,13.3,3.7,17.9,9l2.8-2.4
		C589.2-2.1,570.3-3.5,557.8,7.2z M577.4,26.3c-1.9-0.1-3.5,1.4-3.5,3.3c-0.1,2.1,1.8,1.3,1.7,3c-0.8,17.8-1.6,42.1-2.5,69
		c-0.6,0.2-1.4,0.5-2.1,0.8c-0.2-2.3-0.7-6-1.9-12.4c-2-10.3,0.2-12.4-10.4-12.5c0.3-1.9,0.7-3.3,1.2-3.6c1.8-1.1,3.2-3,3.4-7.8
		c1-0.5,1.9-3.8,0.5-4.1c-0.2-2.3,1-11.4-6.5-12.2c-0.4,0-2.8,0-3.2,0c-6.8,0.5-7.2,9.6-6.9,12.2c-1.4,0-0.3,3,0.7,3.5
		c0.2,4.7,1.6,6.5,2.9,7.4c1.1,0.7,1.6,2.5,1.9,4.6c-7.5,0.2-9.1,1.5-9.4,6.7c-2.6-2.9-5.5-4.6-8.7-4.6c-9.6,0-17.3,15.3-17.3,34.1
		c0,18.1,7.2,50.4,16.2,52.9c-0.8,2.5-1.5,4.8-2.3,6.5c6.3,3,15.5,10.8,15.8,18.7c0.4,1.6,0.5,3,0.3,4.1c-0.5,1.9,0,3.4,0,5.9
		c0,1.8,0,3.3,0.1,4.5c0.1,4.7,2.4,24.1,2.6,31.5c0,0.2-0.3,1.2-0.4,2.4c0,0.5,0.2,1,0.1,1.4c-1.8,13.6-14.8,12.7-5.2,14
		c1.9,0.3,26.7,0.2,26.7,0.2c1.5-47.9,3.3-97.8,4.8-139.8c0.5-0.6,0.8-1.6,1-3.1c0.4-3.5,0.1-5.9-0.6-7.5
		c1.1-29.7,1.9-55.1,2.3-72.9c0-1.6,1.8-0.7,1.8-2.8C580.8,27.9,579.3,26.3,577.4,26.3z M568.2,252.9c-2.4-1.9-5.7-5.4-6.2-12.5
		c-0.1-1.1-0.3-1.6-0.3-1.8c0.2-7.4,3.6-41.4,2.9-45c0.2-3.7,0.5-7.7,0.8-10.6c2-1.6,3.9-3.1,5.4-4.4
		C569.9,204.8,569,230.5,568.2,252.9z"/>
	<path fill="#FFFFFF" d="M512.4,204.5c0-6.6-0.9-10.1-8.9-10.1c-4.9,0-9.1,1.3-9.1,1.3v58.7c0,0-24,0-24-10.8v-66.5
		c0,0,5.2,3.4,14.5,3.4c6.9,0,12.6-3,20-3c15.8,0,31.4,5.3,31.4,24.9v52c0,0-24-0.3-24-10.8V204.5z"/>
</g>
</svg>
